<?xml version="1.0" encoding="UTF-8"?>
<svg version="1.1" xmlns="http://www.w3.org/2000/svg" width="102" height="87">
<path d="M0 0 C12.14422724 7.06260024 20.50932857 17.14840953 24.75390625 30.6015625 C24.94597656 31.19839844 25.13804688 31.79523437 25.3359375 32.41015625 C27.24423844 42.41536022 26.31602811 53.47731877 21.75390625 62.6015625 C24.39390625 62.6015625 27.03390625 62.6015625 29.75390625 62.6015625 C29.75390625 69.5315625 29.75390625 76.4615625 29.75390625 83.6015625 C15.56390625 83.6015625 1.37390625 83.6015625 -13.24609375 83.6015625 C-13.24609375 76.6715625 -13.24609375 69.7415625 -13.24609375 62.6015625 C-10.60609375 60.6215625 -7.96609375 58.6415625 -5.24609375 56.6015625 C-0.81079136 50.17037404 -0.35502425 44.30605371 -1.24609375 36.6015625 C-3.31961619 30.59926071 -6.98315375 26.86358673 -12.49609375 23.7890625 C-19.00050857 21.72933114 -25.0603691 21.81351634 -31.390625 24.4921875 C-35.77554298 27.11390688 -38.44963509 30.93623985 -40.62109375 35.4765625 C-41.97262237 42.23420559 -41.94693599 47.68996622 -38.52734375 53.80859375 C-36.08075903 57.23232054 -33.02186593 59.71367641 -29.24609375 61.6015625 C-29.24609375 68.8615625 -29.24609375 76.1215625 -29.24609375 83.6015625 C-43.43609375 83.6015625 -57.62609375 83.6015625 -72.24609375 83.6015625 C-72.24609375 76.6715625 -72.24609375 69.7415625 -72.24609375 62.6015625 C-69.60609375 62.2715625 -66.96609375 61.9415625 -64.24609375 61.6015625 C-64.72046875 60.3846875 -65.19484375 59.1678125 -65.68359375 57.9140625 C-70.22715667 46.25883588 -68.78782725 34.1344518 -64.0625 22.75 C-57.69221915 9.93725382 -48.0504877 3.0463438 -35.24609375 -2.3984375 C-24.70732226 -5.91136133 -9.98290421 -4.65955633 0 0 Z " fill="#7A6DF3" transform="translate(72.24609375,3.3984375)"/>
<path d="M0 0 C0.33 0 0.66 0 1 0 C1 7.26 1 14.52 1 22 C-13.19 22 -27.38 22 -42 22 C-42 15.07 -42 8.14 -42 1 C-28.14 1.33 -14.28 1.66 0 2 C0 1.34 0 0.68 0 0 Z " fill="#887BF9" transform="translate(42,65)"/>
<path d="M0 0 C14.19 0 28.38 0 43 0 C43 6.93 43 13.86 43 21 C28.81 21 14.62 21 0 21 C0 14.07 0 7.14 0 0 Z " fill="#887BF9" transform="translate(59,66)"/>
<path d="M0 0 C0.33 1.32 0.66 2.64 1 4 C-1.31 5.98 -3.62 7.96 -6 10 C-6.66 9.67 -7.32 9.34 -8 9 C-6.8553125 8.1646875 -6.8553125 8.1646875 -5.6875 7.3125 C-3.03859112 5.03320631 -1.61711178 3.06400128 0 0 Z " fill="#7E74E9" transform="translate(70,55)"/>
</svg>
