<?xml version="1.0" encoding="UTF-8"?>
<svg version="1.1" xmlns="http://www.w3.org/2000/svg" width="224" height="182">
<path d="M0 0 C1.54494141 0.50853516 1.54494141 0.50853516 3.12109375 1.02734375 C26.39342261 9.71197112 45.36176286 27.70123267 56 50 C56.43957031 50.92039063 56.87914062 51.84078125 57.33203125 52.7890625 C58.68588198 55.82397864 59.87131044 58.87439815 61 62 C61.39574219 63.08796875 61.79148438 64.1759375 62.19921875 65.296875 C69.00721462 87.5602159 66.20631728 111.95698907 57 133 C65.415 133.495 65.415 133.495 74 134 C74 148.52 74 163.04 74 178 C44.3 178 14.6 178 -16 178 C-16 163.48 -16 148.96 -16 134 C-11.71 131.36 -7.42 128.72 -3 126 C6.49073782 116.63927229 11.833314 106.06677219 12.375 92.5 C11.83936817 80.13583196 7.03485694 67.93229714 -2.15234375 59.4921875 C-12.88727662 50.8225377 -24.32295923 48.08480768 -38 49 C-48.39917539 50.66952748 -59.30098645 55.97236724 -65.87890625 64.41015625 C-73.83880445 76.95022789 -77.35055894 88.59054538 -74.3046875 103.375 C-72.49414561 109.33913801 -69.87390924 114.25456821 -66.171875 119.2578125 C-65 121 -65 121 -65 123 C-64.34 123 -63.68 123 -63 123 C-62.01 124.0828125 -62.01 124.0828125 -61 125.1875 C-57.25359767 128.96794405 -57.25359767 128.96794405 -48 133 C-48 147.85 -48 162.7 -48 178 C-77.7 178 -107.4 178 -138 178 C-138 163.48 -138 148.96 -138 134 C-132.06 134 -126.12 134 -120 134 C-120.763125 132.123125 -121.52625 130.24625 -122.3125 128.3125 C-124.88026915 121.64939366 -126.63829739 115.00172762 -128 108 C-128.185625 107.06800781 -128.37125 106.13601562 -128.5625 105.17578125 C-132.07054124 79.71116048 -124.65958249 54.48823297 -109.6875 33.8125 C-84.12736463 1.05414775 -39.87420198 -13.62106336 0 0 Z " fill="#7A6DF3" transform="translate(144,4)"/>
<path d="M0 0 C0.99 0 1.98 0 3 0 C3 14.85 3 29.7 3 45 C-26.7 45 -56.4 45 -87 45 C-87 30.48 -87 15.96 -87 1 C-58.29 1 -29.58 1 0 1 C0 0.67 0 0.34 0 0 Z " fill="#887BF9" transform="translate(93,137)"/>
<path d="M0 0 C0.99 0.33 1.98 0.66 3 1 C5.75370229 1.09133385 8.48158822 1.12600326 11.23510742 1.11352539 C12.07435257 1.11367142 12.91359772 1.11381744 13.77827454 1.1139679 C16.55403217 1.11327087 19.32972282 1.10548829 22.10546875 1.09765625 C24.02932193 1.09579132 25.95317559 1.09436777 27.87702942 1.09336853 C32.94214182 1.08954924 38.00722558 1.07972394 43.07232666 1.06866455 C49.14879515 1.05663996 55.22527321 1.05204539 61.30175018 1.04621124 C70.53452005 1.0365119 79.76722705 1.01735121 89 1 C89 15.52 89 30.04 89 45 C59.3 45 29.6 45 -1 45 C-1 1 -1 1 0 0 Z " fill="#887BF9" transform="translate(129,137)"/>
</svg>
