<?xml version="1.0" standalone="no"?>
<!DOCTYPE svg PUBLIC "-//W3C//DTD SVG 20010904//EN"
 "http://www.w3.org/TR/2001/REC-SVG-20010904/DTD/svg10.dtd">
<svg version="1.0" xmlns="http://www.w3.org/2000/svg"
 width="342.000000pt" height="294.000000pt" viewBox="0 0 342.000000 294.000000"
 preserveAspectRatio="xMidYMid meet">

<g transform="translate(0.000000,294.000000) scale(0.100000,-0.100000)"
fill="#000000" stroke="none">
<path d="M1565 2920 c-618 -66 -1123 -472 -1314 -1055 -55 -169 -75 -298 -75
-480 0 -216 31 -381 106 -573 l41 -102 546 0 546 0 -65 37 c-40 22 -100 71
-155 127 -72 72 -99 109 -133 176 -55 111 -82 219 -82 332 0 119 22 213 77
328 40 82 58 107 142 190 103 103 176 148 306 192 60 20 90 23 210 23 120 0
150 -3 210 -23 130 -44 203 -89 306 -192 84 -83 102 -108 142 -190 105 -220
104 -442 -5 -660 -57 -113 -187 -248 -300 -310 l-78 -42 0 -344 0 -344 710 0
710 0 0 345 0 345 -144 0 c-80 0 -147 4 -151 9 -3 6 10 47 29 93 77 189 110
359 110 578 -1 239 -32 398 -122 614 -151 359 -453 661 -815 810 -233 97 -519
141 -752 116z"/>
</g>
</svg>
