<?xml version="1.0" encoding="UTF-8"?>
<svg version="1.1" xmlns="http://www.w3.org/2000/svg" width="48" height="42">
<path d="M0 0 C6.31562565 3.70646756 11.39191361 9.10585887 13.6484375 16.125 C13.87890625 18.94921875 13.87890625 18.94921875 13.8359375 21.8125 C13.82949219 22.76511719 13.82304688 23.71773437 13.81640625 24.69921875 C13.6484375 27.125 13.6484375 27.125 12.6484375 29.125 C13.6384375 29.455 14.6284375 29.785 15.6484375 30.125 C15.6484375 33.755 15.6484375 37.385 15.6484375 41.125 C8.7184375 41.125 1.7884375 41.125 -5.3515625 41.125 C-5.7915206 33.73370393 -5.7915206 33.73370393 -5.3515625 30.125 C-2.9140625 27.8125 -2.9140625 27.8125 -0.3515625 26.125 C0.98948712 22.26948235 0.84676051 20.62552951 -0.6640625 16.8125 C-2.07668188 14.04591219 -2.07668188 14.04591219 -4.3515625 13.125 C-9.89253177 12.59700376 -9.89253177 12.59700376 -14.8515625 14.625 C-16.92529771 18.08122535 -17.29955025 21.25470289 -16.3515625 25.125 C-15.5265625 25.888125 -14.7015625 26.65125 -13.8515625 27.4375 C-10.85330361 30.6606283 -11.01184652 31.67003445 -11.0390625 35.9375 C-11.1421875 37.649375 -11.2453125 39.36125 -11.3515625 41.125 C-18.2815625 41.125 -25.2115625 41.125 -32.3515625 41.125 C-32.3515625 37.495 -32.3515625 33.865 -32.3515625 30.125 C-31.3615625 29.795 -30.3715625 29.465 -29.3515625 29.125 C-29.6815625 28.135 -30.0115625 27.145 -30.3515625 26.125 C-31.09085591 19.30168538 -30.51739897 13.71416393 -26.3515625 8.125 C-18.97416011 0.46036268 -10.79982488 -4.01853949 0 0 Z " fill="#7B6EF4" transform="translate(32.3515625,0.875)"/>
<path d="M0 0 C6.93 0 13.86 0 21 0 C21 3.63 21 7.26 21 11 C14.07 11 7.14 11 0 11 C0 7.37 0 3.74 0 0 Z " fill="#887BF9" transform="translate(0,31)"/>
<path d="M0 0 C6.93 0 13.86 0 21 0 C21 3.63 21 7.26 21 11 C14.07 11 7.14 11 0 11 C0 7.37 0 3.74 0 0 Z " fill="#887BF9" transform="translate(27,31)"/>
<path d="M0 0 C0.66 0 1.32 0 2 0 C2 0.66 2 1.32 2 2 C2.66 1.67 3.32 1.34 4 1 C5.70702735 0.93003986 7.41668003 0.91559846 9.125 0.9375 C10.03507812 0.94652344 10.94515625 0.95554687 11.8828125 0.96484375 C12.58148438 0.97644531 13.28015625 0.98804687 14 1 C14 1.66 14 2.32 14 3 C9.05 3 4.1 3 -1 3 C-0.67 2.01 -0.34 1.02 0 0 Z " fill="#766BE8" transform="translate(30,29)"/>
<path d="M0 0 C0.99 0.33 1.98 0.66 3 1 C3 1.66 3 2.32 3 3 C-1.62 3 -6.24 3 -11 3 C-10.67 2.34 -10.34 1.68 -10 1 C-9.36191406 1.01160156 -8.72382813 1.02320312 -8.06640625 1.03515625 C-7.24011719 1.04417969 -6.41382813 1.05320312 -5.5625 1.0625 C-4.32693359 1.07990234 -4.32693359 1.07990234 -3.06640625 1.09765625 C-1.00836062 1.23267348 -1.00836062 1.23267348 0 0 Z " fill="#766BE8" transform="translate(16,29)"/>
</svg>
